<svg width="40" height="40" viewBox="0 0 40 40" fill="none" xmlns="http://www.w3.org/2000/svg">
<path d="M20.019 1.71924C30.1272 1.71924 38.3218 9.92364 38.3218 20.0444C38.3218 30.1652 30.1272 38.3696 20.019 38.3696C9.91104 38.3695 1.7173 30.1651 1.71729 20.0444C1.71729 9.92374 9.91103 1.71941 20.019 1.71924ZM28.2505 24.7192C27.4049 26.2047 26.1724 27.4388 24.689 28.2856C27.8633 30.6639 30.3163 31.822 31.0493 31.0884C31.7823 30.3545 30.626 27.8979 28.2505 24.7192ZM11.7271 15.313C10.9379 16.7002 10.4859 18.3046 10.4858 20.0151C10.4858 25.2708 14.7416 29.5317 19.9907 29.5317C21.7004 29.5317 23.3029 29.0769 24.689 28.2856C23.9868 27.7596 23.2496 27.1739 22.4878 26.5356C21.7122 26.8336 20.871 26.9995 19.9907 26.9995C16.138 26.9995 13.0142 23.8727 13.0142 20.0151C13.0142 19.1344 13.1779 18.2922 13.4751 17.5161C12.8376 16.754 12.2529 16.0157 11.7271 15.313ZM17.4946 13.4927C15.6499 14.2006 14.1824 15.6693 13.4751 17.5161C14.7274 19.0132 16.1811 20.6049 17.7817 22.2075C19.3897 23.8175 20.9866 25.2779 22.4878 26.5356C24.3305 25.8277 25.7953 24.3611 26.5024 22.5161C25.2462 21.0129 23.7873 19.4134 22.1792 17.8032C20.5788 16.2009 18.9896 14.7464 17.4946 13.4927ZM19.9907 10.4985C18.2824 10.4985 16.6799 10.9517 15.2944 11.7417C15.9964 12.2683 16.7334 12.8543 17.4946 13.4927C18.2697 13.1952 19.1111 13.0308 19.9907 13.0308C23.8432 13.031 26.9662 16.1578 26.9663 20.0151C26.9663 20.8968 26.8001 21.7394 26.5024 22.5161C27.1398 23.2787 27.7252 24.0164 28.2505 24.7192C29.0404 23.3315 29.4946 21.7267 29.4946 20.0151C29.4946 14.7597 25.2396 10.4988 19.9907 10.4985ZM15.2944 11.7417C12.109 9.35195 9.6453 8.18679 8.91064 8.92236C8.17657 9.65824 9.34076 12.1241 11.7271 15.313C12.5734 13.8252 13.8085 12.5891 15.2944 11.7417Z" fill="black"/>
</svg>
